<svg xmlns="http://www.w3.org/2000/svg" width="16" height="16" viewBox="0 0 16 16"><g transform="translate(-673 -199)"><g transform="translate(652.5 199.013)"><path d="M27.641.544,25.688,4.681l-4.369.666a1.013,1.013,0,0,0-.529,1.706l3.161,3.218L23.2,14.817a.966.966,0,0,0,1.388,1.053L28.5,13.724l3.909,2.147A.967.967,0,0,0,33.8,14.817l-.748-4.546,3.161-3.218a1.013,1.013,0,0,0-.529-1.706l-4.369-.666L29.358.544A.94.94,0,0,0,27.641.544Z" transform="translate(0 0)" fill="#4f6b95"/></g><path d="M-1986.352,16a.949.949,0,0,1-.721-.343,1.006,1.006,0,0,1-.223-.828l.748-4.547-3.162-3.218a1.022,1.022,0,0,1-.235-1.046.952.952,0,0,1,.765-.66l4.37-.666,1.953-4.137A.934.934,0,0,1-1982,0l0,13.736-3.909,2.147A.908.908,0,0,1-1986.352,16Z" transform="translate(2663 199)" fill="#edb709"/></g></svg>